<svg xmlns="http://www.w3.org/2000/svg" xml:space="preserve" width="1080" height="1080" viewBox="0 0 1080 1080">
  <path d="M559.263 13.991c46.906 88.113 65.858 163.362 21.359 258.088-47.777 101.7-186.881 207.241-104.686 329.193 10.844 16.09 24.355 29.812 41.19 39.503-9.458-16.603-22.216-30.512-25.478-50.037-10.685-63.964 33.999-129.928 99.217-138.818 27.906-3.804 111.51 15.125 119.7-21.838 3.4-15.346-6.102-29.635-5.44-44.76.758-17.3 9.545-37.54 4.926-55.07-2.733-10.375-17.836-14.795-17.835-26.327.001-15.873 33.28-18.359 27.018-37.01-8.542-25.442-103.078-55.203-62.53-94.91-15.586-37.607-35.438-75.194-55.7-110.61-10.106-17.662-22.846-38.518-41.741-47.404m-13.168 52.671c13.077 70.44-46.212 126.42-89.094 173.814C373.29 333 255.975 418.477 238.732 551.235c-6.8 52.355 14.168 115.913 65.077 139.092 30.279 13.787 58.954 9.825 89.54 17.39 13.941 3.449 25.652 14.059 39.503 18.596 26.124 8.556 57.062 8.79 84.274 6.19 62.807-6.002 136.619-23.5 186.736 27.02 23.234 23.42 32.347 56.26 42.384 86.669 15.244 46.185 30.361 91.712 48.455 136.944 12.335 30.838 31.511 71.01 62.152 86.907-46.185-62.997-66.627-125.547-89.475-200.15-14.273-46.604-20.565-99.277-60.675-132.182-93.024-76.315-240.046 26.13-313.077-83.768-8.388-12.622-13.712-27.52-17.452-42.137-36.367-142.143 105.167-255.033 157.558-371.33 20.834-46.248 52.796-128.843 12.363-173.814m10.534 39.503c0 196.973-248.886 308.46-209.47 513.542 6.369 33.138 26.318 56.592 43.557 84.273-109.047-4.682-153.085-94.801-121.812-192.248 36.476-113.66 153.67-196.545 225.97-287.057 26.586-33.282 55.571-74.326 56.488-118.51h5.267m-36.87 534.61 2.634 2.634-2.634-2.634m339.728 429.268 2.633 2.634-2.633-2.634m5.267 2.634 2.634 2.634z" style="currentColor"/>
</svg>