<?xml version="1.0" standalone="no"?>
<!DOCTYPE svg PUBLIC "-//W3C//DTD SVG 20010904//EN"
 "http://www.w3.org/TR/2001/REC-SVG-20010904/DTD/svg10.dtd">
<svg version="1.0" xmlns="http://www.w3.org/2000/svg"
 width="500.000000pt" height="500.000000pt" viewBox="0 0 500.000000 500.000000"
 preserveAspectRatio="xMidYMid meet">
<metadata>
Created by potrace 1.14, written by Peter Selinger 2001-2017
</metadata>
<g transform="translate(0.000000,500.000000) scale(0.100000,-0.100000)"
fill="#000000" stroke="none">
<path d="M0 2500 l0 -2500 2500 0 2500 0 0 2500 0 2500 -2500 0 -2500 0 0
-2500z m2782 2373 c76 -33 148 -110 176 -186 39 -103 24 -230 -38 -315 l-30
-41 22 -48 c34 -74 32 -200 -4 -273 -35 -72 -99 -136 -168 -169 -46 -22 -69
-26 -140 -26 -73 0 -93 4 -142 28 -68 34 -151 120 -170 178 -12 37 -20 44 -56
54 -149 44 -246 177 -245 336 1 143 100 271 243 313 29 9 71 16 92 16 21 0 38
4 38 8 0 19 93 101 137 122 96 45 187 46 285 3z m276 -65 c231 -156 441 -408
502 -603 7 -22 16 -44 20 -49 10 -10 96 39 115 67 8 12 15 17 15 12 0 -18 -37
-71 -75 -108 -29 -29 -36 -41 -31 -60 9 -36 89 -120 178 -188 43 -33 86 -71
95 -85 19 -29 11 -53 -38 -114 -37 -45 -40 -82 -10 -114 26 -28 27 -60 1 -96
-20 -29 -18 -40 10 -40 40 0 54 -25 56 -101 1 -60 8 -87 34 -141 26 -56 31
-75 25 -108 -8 -48 -49 -86 -103 -96 -72 -12 -158 -36 -237 -66 -307 -117
-474 -345 -475 -646 0 -157 58 -366 151 -542 l39 -75 -55 60 c-188 203 -355
475 -430 699 -53 158 -68 265 -62 436 9 211 44 348 179 695 39 99 87 232 108
296 115 346 106 638 -28 918 -21 45 -37 81 -34 81 2 0 24 -14 50 -32z m-928
-938 c-20 -38 -81 -267 -100 -375 -74 -437 5 -781 258 -1122 79 -105 314 -343
507 -513 364 -319 503 -485 630 -753 100 -211 148 -415 148 -627 -1 -141 -12
-218 -51 -340 l-27 -85 -2 50 c-23 458 -287 928 -751 1337 -64 57 -163 138
-220 181 -626 475 -839 1111 -606 1816 35 107 138 330 187 409 27 42 47 59 27
22z m-420 -833 c-49 -165 -64 -259 -64 -417 -1 -194 26 -312 106 -474 87 -176
199 -306 498 -575 107 -97 225 -207 262 -246 178 -183 312 -439 353 -674 28
-159 15 -368 -30 -475 -13 -30 -13 -30 -19 29 -19 172 -60 307 -142 465 -121
233 -315 453 -594 675 -249 198 -376 344 -470 541 -170 353 -138 791 86 1192
20 35 37 62 39 60 2 -2 -9 -47 -25 -101z"/>
<path d="M2588 4800 c-61 -15 -117 -59 -150 -116 l-29 -52 -54 5 c-150 16
-269 -89 -269 -237 0 -129 88 -224 219 -237 53 -6 53 -6 59 -45 14 -89 89
-177 168 -198 233 -63 404 205 246 385 -22 25 -35 45 -30 45 23 0 102 83 117
125 26 67 17 160 -20 220 -51 82 -164 127 -257 105z m-43 -241 c151 -41 194
-232 76 -332 -30 -25 -87 -47 -121 -47 -37 0 -94 24 -127 53 -112 99 -68 284
77 325 47 14 49 14 95 1z"/>
<path d="M2454 4476 c-68 -30 -87 -117 -38 -175 65 -78 194 -31 194 71 0 48
-24 87 -67 104 -40 17 -49 17 -89 0z"/>
</g>
</svg>
